<?xml version="1.0" encoding="utf-8"?>
<!-- Generator: Adobe Illustrator 24.1.1, SVG Export Plug-In . SVG Version: 6.00 Build 0)  -->
<svg version="1.1" id="Layer_1" xmlns="http://www.w3.org/2000/svg" xmlns:xlink="http://www.w3.org/1999/xlink" x="0px" y="0px"
	 viewBox="0 0 512 512" style="enable-background:new 0 0 512 512;" xml:space="preserve">
<style type="text/css">
	.st0{fill:#333333;}
</style>
<g id="XMLID_1_">
	<path id="XMLID_4_" class="st0" d="M378.3,35.7c0,0-84.9,40.9-170.6,11C114.9,14.5,73.2,27,33.1,75.8c-7.1-3.9-15.7-3.9-22.8,0
		C0.1,82.1-3.1,96.2,3.2,106.5l225.7,366.4c3.9,7.1,11.8,10.2,18.9,10.2c3.9,0,7.9-0.8,11.8-3.1c10.2-6.3,13.4-20.4,7.1-30.7
		l-99.1-162c39.3-48,81.8-61.3,173.8-29.1c84.9,29.9,170.6-11,170.6-11L378.3,35.7z"/>
</g>
</svg>
